# Blender v3.2.2 OBJ File: 'crystal.blend'
# www.blender.org
o Icosphere.002
v 0.005533 -2.661070 -0.004260
v -0.981818 -2.006346 0.357869
v -0.943784 -1.890494 -0.341391
v -0.076222 -1.516328 -0.577176
v 0.325870 -1.585547 0.069898
v -0.240060 -1.612133 0.586919
v -1.416355 -0.452969 0.188740
v -1.072801 -0.093294 -0.239600
v -0.539219 0.181724 0.083884
v -0.389798 -0.118671 0.784837
v -1.233467 -0.402668 0.913033
v -1.261389 0.706356 0.490323
v 0.045699 -2.552554 -0.031636
v 0.761137 -1.125978 0.689775
v -0.179292 -1.205300 0.949080
v -0.985674 -1.178903 -0.119599
v -0.379623 -1.247528 -0.931456
v 0.623175 -1.024999 -0.473923
v 0.198467 1.009223 0.828440
v -0.765902 1.167292 0.491031
v -0.690338 1.302961 -0.489266
v 0.272722 1.126034 -0.906824
v 0.937864 1.132754 0.171596
v 0.029474 2.535102 0.011532
v -0.087284 -2.529144 -0.049519
v 0.524279 -1.960513 -0.753166
v 0.789505 -1.853186 -0.177330
v 0.217567 -1.519151 0.383316
v -0.366246 -1.583359 0.036793
v -0.146166 -1.612935 -0.617228
v 0.932051 -0.595943 -0.789457
v 0.846739 -0.275235 -0.297998
v 0.297577 -0.033946 -0.327089
v -0.113450 -0.302707 -0.826134
v 0.485347 -0.556586 -1.289882
v 0.685243 0.421078 -0.954459
v 1.158233 -0.156560 1.237524
v 0.449046 -0.428676 0.607496
v 0.253085 -0.588048 1.113403
v 0.754468 -1.068813 1.458751
v 1.246641 -1.037577 1.100765
v 0.992973 -0.857815 0.574760
v -0.154263 -1.547239 0.374804
v -0.086772 -1.929841 0.724805
v 0.352504 -2.217674 0.585958
v 0.713094 -1.954143 0.157271
v 0.183500 -1.556911 -0.116701
v -0.131603 -2.438988 0.013996
vt 0.181819 0.000000
vt 0.272728 0.157461
vt 0.090910 0.157461
vt 0.363637 0.000000
vt 0.454546 0.157461
vt 0.909091 0.000000
vt 1.000000 0.157461
vt 0.818182 0.157461
vt 0.727273 0.000000
vt 0.636364 0.157461
vt 0.545455 0.000000
vt 0.363637 0.314921
vt 0.181819 0.314921
vt 0.909091 0.314921
vt 0.727273 0.314921
vt 0.545455 0.314921
vt 0.000000 0.314921
vt 0.272728 0.472382
vt 0.090910 0.472382
vt 0.818182 0.472382
vt 0.636364 0.472382
vt 0.454546 0.472382
vt 0.181819 0.000000
vt 0.272728 0.157461
vt 0.090910 0.157461
vt 0.363637 0.000000
vt 0.454546 0.157461
vt 0.909091 0.000000
vt 1.000000 0.157461
vt 0.818182 0.157461
vt 0.727273 0.000000
vt 0.636364 0.157461
vt 0.545455 0.000000
vt 0.363637 0.314921
vt 0.181819 0.314921
vt 0.909091 0.314921
vt 0.727273 0.314921
vt 0.545455 0.314921
vt 0.000000 0.314921
vt 0.272728 0.472382
vt 0.090910 0.472382
vt 0.818182 0.472382
vt 0.636364 0.472382
vt 0.454546 0.472382
vt 0.181819 0.000000
vt 0.272728 0.157461
vt 0.090910 0.157461
vt 0.363637 0.000000
vt 0.454546 0.157461
vt 0.909091 0.000000
vt 1.000000 0.157461
vt 0.818182 0.157461
vt 0.727273 0.000000
vt 0.636364 0.157461
vt 0.545455 0.000000
vt 0.363637 0.314921
vt 0.181819 0.314921
vt 0.909091 0.314921
vt 0.727273 0.314921
vt 0.545455 0.314921
vt 0.000000 0.314921
vt 0.272728 0.472382
vt 0.090910 0.472382
vt 0.818182 0.472382
vt 0.636364 0.472382
vt 0.454546 0.472382
vt 0.181819 0.000000
vt 0.272728 0.157461
vt 0.090910 0.157461
vt 0.363637 0.000000
vt 0.454546 0.157461
vt 0.909091 0.000000
vt 1.000000 0.157461
vt 0.818182 0.157461
vt 0.727273 0.000000
vt 0.636364 0.157461
vt 0.545455 0.000000
vt 0.363637 0.314921
vt 0.181819 0.314921
vt 0.909091 0.314921
vt 0.727273 0.314921
vt 0.545455 0.314921
vt 0.000000 0.314921
vt 0.272728 0.472382
vt 0.090910 0.472382
vt 0.818182 0.472382
vt 0.636364 0.472382
vt 0.454546 0.472382
vn -0.5861 -0.7936 -0.1634
vn -0.0072 -0.4922 0.8704
vn -0.0484 -0.4498 -0.8918
vn 0.8207 -0.2077 -0.5322
vn 0.6601 -0.2456 0.7099
vn -0.1076 -0.3403 0.9341
vn -0.9556 -0.2780 -0.0980
vn -0.2760 0.0346 -0.9605
vn 0.7988 0.3946 -0.4541
vn 0.6749 -0.0300 0.7373
vn -0.9384 -0.2349 0.2533
vn -0.7719 -0.0194 -0.6354
vn 0.3046 0.4165 -0.8566
vn 0.8982 0.4397 -0.0030
vn 0.1856 -0.1108 0.9764
vn -0.9685 0.0671 0.2399
vn -0.8453 0.2375 -0.4786
vn 0.0878 0.6828 -0.7253
vn 0.6429 0.7441 0.1818
vn 0.0219 0.3566 0.9340
vn 0.2659 -0.5379 0.8000
vn 0.9117 -0.3857 -0.1416
vn -0.7004 -0.4928 0.5163
vn -0.6913 -0.5491 -0.4696
vn 0.4524 -0.4016 -0.7963
vn 0.9863 -0.1061 -0.1261
vn 0.2652 0.0073 0.9642
vn -0.7966 -0.0813 0.5991
vn -0.8011 0.0062 -0.5985
vn 0.4326 -0.1096 -0.8949
vn 0.6477 0.1219 0.7521
vn -0.3131 0.1048 0.9439
vn -0.9922 0.1089 -0.0614
vn -0.3776 0.1133 -0.9190
vn 0.8506 0.0330 -0.5248
vn 0.5543 0.4397 0.7067
vn -0.2317 0.4391 0.8681
vn -0.8640 0.5035 0.0031
vn -0.2682 0.4931 -0.8276
vn 0.7630 0.4402 -0.4733
vn 0.5942 -0.7945 -0.1256
vn -0.4131 -0.4987 -0.7620
vn 0.4672 -0.4636 0.7528
vn -0.4801 -0.2191 0.8494
vn -0.9223 -0.2447 -0.2993
vn -0.3540 -0.3425 -0.8703
vn 0.8915 -0.2760 -0.3592
vn 0.7081 0.0283 0.7055
vn -0.5006 0.3953 0.7701
vn -0.9478 -0.0270 -0.3177
vn 0.7166 -0.2316 -0.6579
vn 0.9826 -0.0215 0.1846
vn 0.1376 0.4213 0.8964
vn -0.7951 0.4389 0.4185
vn -0.6365 -0.1059 -0.7639
vn 0.7469 0.0740 -0.6609
vn 0.9712 0.2379 0.0134
vn 0.2691 0.6930 0.6689
vn -0.6530 0.7449 0.1367
vn -0.4652 0.3709 -0.8037
vn -0.4400 0.8912 0.1103
vn 0.4099 0.5736 -0.7092
vn -0.2865 0.3437 0.8943
vn 0.5897 -0.0658 0.8050
vn 0.9096 0.1513 -0.3869
vn 0.3128 0.4598 -0.8311
vn -0.8512 0.4952 -0.1737
vn -0.6122 -0.0729 0.7873
vn 0.4823 -0.6307 0.6080
vn 0.8916 -0.0565 -0.4493
vn -0.7142 0.4893 -0.5004
vn -0.9326 0.1399 0.3327
vn -0.1198 -0.5737 0.8103
vn 0.7305 -0.6478 0.2162
vn 0.5507 0.1706 -0.8171
vn -0.8048 0.2049 -0.5571
vn -0.9910 -0.0711 0.1134
vn -0.3198 -0.7606 0.5650
vn 0.5079 -0.8557 -0.0988
vn 0.2960 -0.2426 -0.9239
s off
f 1/1/1 2/2/1 3/3/1
f 2/2/2 1/4/2 6/5/2
f 1/6/3 3/7/3 4/8/3
f 1/9/4 4/8/4 5/10/4
f 1/11/5 5/10/5 6/5/5
f 2/2/6 6/5/6 11/12/6
f 3/3/7 2/2/7 7/13/7
f 4/8/8 3/7/8 8/14/8
f 5/10/9 4/8/9 9/15/9
f 6/5/10 5/10/10 10/16/10
f 2/2/11 11/12/11 7/13/11
f 3/3/12 7/13/12 8/17/12
f 4/8/13 8/14/13 9/15/13
f 5/10/14 9/15/14 10/16/14
f 6/5/15 10/16/15 11/12/15
f 7/13/16 11/12/16 12/18/16
f 8/17/17 7/13/17 12/19/17
f 9/15/18 8/14/18 12/20/18
f 10/16/19 9/15/19 12/21/19
f 11/12/20 10/16/20 12/22/20
f 13/23/21 14/24/21 15/25/21
f 14/24/22 13/26/22 18/27/22
f 13/28/23 15/29/23 16/30/23
f 13/31/24 16/30/24 17/32/24
f 13/33/25 17/32/25 18/27/25
f 14/24/26 18/27/26 23/34/26
f 15/25/27 14/24/27 19/35/27
f 16/30/28 15/29/28 20/36/28
f 17/32/29 16/30/29 21/37/29
f 18/27/30 17/32/30 22/38/30
f 14/24/31 23/34/31 19/35/31
f 15/25/32 19/35/32 20/39/32
f 16/30/33 20/36/33 21/37/33
f 17/32/34 21/37/34 22/38/34
f 18/27/35 22/38/35 23/34/35
f 19/35/36 23/34/36 24/40/36
f 20/39/37 19/35/37 24/41/37
f 21/37/38 20/36/38 24/42/38
f 22/38/39 21/37/39 24/43/39
f 23/34/40 22/38/40 24/44/40
f 25/45/41 26/46/41 27/47/41
f 26/46/42 25/48/42 30/49/42
f 25/50/43 27/51/43 28/52/43
f 25/53/44 28/52/44 29/54/44
f 25/55/45 29/54/45 30/49/45
f 26/46/46 30/49/46 35/56/46
f 27/47/47 26/46/47 31/57/47
f 28/52/48 27/51/48 32/58/48
f 29/54/49 28/52/49 33/59/49
f 30/49/50 29/54/50 34/60/50
f 26/46/51 35/56/51 31/57/51
f 27/47/52 31/57/52 32/61/52
f 28/52/53 32/58/53 33/59/53
f 29/54/54 33/59/54 34/60/54
f 30/49/55 34/60/55 35/56/55
f 31/57/56 35/56/56 36/62/56
f 32/61/57 31/57/57 36/63/57
f 33/59/58 32/58/58 36/64/58
f 34/60/59 33/59/59 36/65/59
f 35/56/60 34/60/60 36/66/60
f 37/67/61 38/68/61 39/69/61
f 38/68/62 37/70/62 42/71/62
f 37/72/63 39/73/63 40/74/63
f 37/75/64 40/74/64 41/76/64
f 37/77/65 41/76/65 42/71/65
f 38/68/66 42/71/66 47/78/66
f 39/69/67 38/68/67 43/79/67
f 40/74/68 39/73/68 44/80/68
f 41/76/69 40/74/69 45/81/69
f 42/71/70 41/76/70 46/82/70
f 38/68/71 47/78/71 43/79/71
f 39/69/72 43/79/72 44/83/72
f 40/74/73 44/80/73 45/81/73
f 41/76/74 45/81/74 46/82/74
f 42/71/75 46/82/75 47/78/75
f 43/79/76 47/78/76 48/84/76
f 44/83/77 43/79/77 48/85/77
f 45/81/78 44/80/78 48/86/78
f 46/82/79 45/81/79 48/87/79
f 47/78/80 46/82/80 48/88/80
